<svg width="19" height="19" viewBox="0 0 19 19" fill="none" xmlns="http://www.w3.org/2000/svg">
<path d="M11.4609 13.208H13.7109M13.7109 13.208H15.9609M13.7109 13.208V10.958M13.7109 13.208V15.458" stroke="#A10501" stroke-width="1.5" stroke-linecap="round" stroke-linejoin="round"/>
<path d="M3.9668 7.50801V3.90801C3.9668 3.65948 4.16827 3.45801 4.4168 3.45801H8.0168C8.26532 3.45801 8.4668 3.65948 8.4668 3.90801V7.50801C8.4668 7.75654 8.26532 7.95801 8.0168 7.95801H4.4168C4.16827 7.95801 3.9668 7.75654 3.9668 7.50801Z" stroke="#A10501" stroke-width="1.5"/>
<path d="M3.9668 15.008V11.408C3.9668 11.1595 4.16827 10.958 4.4168 10.958H8.0168C8.26532 10.958 8.4668 11.1595 8.4668 11.408V15.008C8.4668 15.2566 8.26532 15.458 8.0168 15.458H4.4168C4.16827 15.458 3.9668 15.2566 3.9668 15.008Z" stroke="#A10501" stroke-width="1.5"/>
<path d="M11.4668 7.50801V3.90801C11.4668 3.65948 11.6682 3.45801 11.9168 3.45801H15.5168C15.7653 3.45801 15.9668 3.65948 15.9668 3.90801V7.50801C15.9668 7.75654 15.7653 7.95801 15.5168 7.95801H11.9168C11.6682 7.95801 11.4668 7.75654 11.4668 7.50801Z" stroke="#A10501" stroke-width="1.5"/>
</svg>
