<svg width="19" height="19" viewBox="0 0 19 19" fill="none" xmlns="http://www.w3.org/2000/svg">
<path d="M17.2071 2.59546V5.96824C17.2071 6.17657 17.0382 6.34546 16.8299 6.34546C16.68 6.34546 16.545 6.25624 16.4805 6.1209C15.2747 3.59257 12.6949 1.84546 9.70713 1.84546C5.81809 1.84546 2.62043 4.80547 2.24414 8.59546" stroke="#A10501" stroke-width="1.5" stroke-linecap="round" stroke-linejoin="round"/>
<path d="M13.4551 7.84545V11.5955C13.4551 12.4239 12.7835 13.0955 11.9551 13.0955H7.45508C6.62665 13.0955 5.95508 12.4239 5.95508 11.5955V7.84546C5.95508 7.01703 6.62665 6.34546 7.45508 6.34546H11.9551C12.7835 6.34546 13.4551 7.01703 13.4551 7.84545Z" stroke="#A10501" stroke-width="1.5" stroke-linecap="round" stroke-linejoin="round"/>
<path d="M9.70508 8.59546V6.34546" stroke="#A10501" stroke-width="1.5" stroke-linecap="round" stroke-linejoin="round"/>
<path d="M2.24219 16.0955V12.7227C2.24219 12.5144 2.41108 12.3455 2.61941 12.3455C2.76935 12.3455 2.90428 12.4347 2.96883 12.57C4.17463 15.0983 6.75437 16.8455 9.74216 16.8455C13.6312 16.8455 16.8288 13.8854 17.2052 10.0955" stroke="#A10501" stroke-width="1.5" stroke-linecap="round" stroke-linejoin="round"/>
</svg>
