<svg width="17" height="18" viewBox="0 0 17 18" fill="none" xmlns="http://www.w3.org/2000/svg">
<path fill-rule="evenodd" clip-rule="evenodd" d="M8.50008 1.38544C4.29466 1.38544 0.885498 4.7946 0.885498 9.00002C0.885498 13.2055 4.29466 16.6146 8.50008 16.6146C12.7055 16.6146 16.1147 13.2055 16.1147 9.00002C16.1147 4.7946 12.7055 1.38544 8.50008 1.38544ZM8.57722 4.9271C6.29573 4.9271 4.42717 6.74022 4.42717 9.00002C4.42717 11.2598 6.29573 13.0729 8.57722 13.0729C9.95287 13.0729 10.9437 12.5561 11.596 11.8002C12.2341 11.0606 12.5161 10.1312 12.5717 9.33202L12.6112 8.76393H9.09579V9.82643H11.4249C11.3166 10.2812 11.1119 10.7349 10.7916 11.106C10.3507 11.617 9.65892 12.0104 8.57722 12.0104C6.86095 12.0104 5.48967 10.6516 5.48967 9.00002C5.48967 7.34839 6.86095 5.9896 8.57722 5.9896C9.38104 5.9896 10.1115 6.28887 10.6591 6.77778L11.3667 5.98523C10.6297 5.32711 9.649 4.9271 8.57722 4.9271Z" fill="white"/>
</svg>
