<svg width="88" height="89" viewBox="0 0 88 89" fill="none" xmlns="http://www.w3.org/2000/svg">
<path d="M44.2833 59.216C52.3312 59.216 58.8556 52.6916 58.8556 44.6436C58.8556 36.5955 52.3312 30.0713 44.2833 30.0713C36.2352 30.0713 29.7109 36.5955 29.7109 44.6436C29.7109 52.6916 36.2352 59.216 44.2833 59.216Z" stroke="black" stroke-width="7.28617" stroke-linecap="round" stroke-linejoin="round"/>
<path d="M11.4961 59.2161V30.0714C11.4961 20.0113 19.6514 11.856 29.7115 11.856H58.8562C68.9162 11.856 77.0717 20.0113 77.0717 30.0714V59.2161C77.0717 69.2761 68.9162 77.4315 58.8562 77.4315H29.7115C19.6514 77.4315 11.4961 69.2761 11.4961 59.2161Z" stroke="black" stroke-width="7.28617"/>
<path d="M64.3203 24.643L64.3563 24.603" stroke="black" stroke-width="7.28617" stroke-linecap="round" stroke-linejoin="round"/>
</svg>
