<svg width="88" height="89" viewBox="0 0 88 89" fill="none" xmlns="http://www.w3.org/2000/svg">
<path d="M51.0012 44.5168L38.251 51.8026V37.231L51.0012 44.5168Z" fill="black" stroke="black" stroke-width="7.28583" stroke-linecap="round" stroke-linejoin="round"/>
<path d="M7.28613 47.0943V41.9392C7.28613 31.3917 7.28613 26.118 10.5848 22.7247C13.8834 19.3314 19.0767 19.1846 29.4631 18.8908C34.3848 18.7516 39.4123 18.6519 43.7153 18.6519C48.0183 18.6519 53.0459 18.7516 57.9675 18.8908C68.3538 19.1846 73.5471 19.3314 76.8458 22.7247C80.1445 26.118 80.1445 31.3917 80.1445 41.9392V47.0943C80.1445 57.6416 80.1445 62.9155 76.8458 66.3085C73.5471 69.7019 68.3542 69.8487 57.9678 70.1427C53.0459 70.2818 48.0183 70.3816 43.7153 70.3816C39.4123 70.3816 34.3846 70.2818 29.4628 70.1427C19.0765 69.8487 13.8833 69.7019 10.5847 66.3085C7.28613 62.9155 7.28613 57.6416 7.28613 47.0943Z" stroke="black" stroke-width="7.28583"/>
</svg>
