<svg width="132" height="115" viewBox="0 0 132 115" fill="none" xmlns="http://www.w3.org/2000/svg">
<g clip-path="url(#clip0_202_620)">
<path d="M65.9956 86.5615C61.5524 86.5615 57.9379 90.176 57.9379 94.6192C57.9379 99.0624 61.5524 102.677 65.9956 102.677C70.4388 102.677 74.0533 99.0624 74.0533 94.6192C74.0533 90.176 70.4388 86.5615 65.9956 86.5615ZM65.9956 98.5864C63.8092 98.5864 62.0284 96.8056 62.0284 94.6192C62.0284 92.4329 63.8092 90.6521 65.9956 90.6521C68.1819 90.6521 69.9627 92.4329 69.9627 94.6192C69.9627 96.8056 68.1819 98.5864 65.9956 98.5864Z" fill="#A10501"/>
<path d="M65.9956 0.342773L0 114.658H132L65.9956 0.342773ZM65.9956 8.53271L124.903 110.568H7.08796L65.9956 8.53271Z" fill="black"/>
<path d="M71.7436 81.14L73.3128 36.0557H58.6873L60.2565 81.14H71.7436ZM69.0723 40.155L67.794 77.0495H64.2148L62.9365 40.155H69.0812H69.0723Z" fill="#A10501"/>
</g>
<defs>
<clipPath id="clip0_202_620">
<rect width="132" height="114.315" fill="white" transform="translate(0 0.342773)"/>
</clipPath>
</defs>
</svg>
