<svg width="20" height="20" viewBox="0 0 20 20" fill="none" xmlns="http://www.w3.org/2000/svg">
<path fill-rule="evenodd" clip-rule="evenodd" d="M13.1813 9.4186C13.3354 9.57279 13.422 9.78189 13.422 9.99992C13.422 10.2179 13.3354 10.427 13.1813 10.5812L8.52987 15.2326C8.45402 15.3112 8.36329 15.3738 8.26298 15.4169C8.16266 15.46 8.05477 15.4827 7.94559 15.4836C7.83642 15.4846 7.72814 15.4638 7.62709 15.4224C7.52604 15.3811 7.43424 15.32 7.35704 15.2428C7.27984 15.1656 7.21878 15.0738 7.17744 14.9728C7.1361 14.8717 7.11529 14.7634 7.11624 14.6543C7.11719 14.5451 7.13987 14.4372 7.18297 14.3369C7.22606 14.2366 7.2887 14.1458 7.36723 14.07L11.4373 9.99992L7.36723 5.92986C7.21745 5.77478 7.13458 5.56708 7.13645 5.35149C7.13832 5.13591 7.2248 4.92968 7.37724 4.77723C7.52969 4.62478 7.73592 4.53831 7.95151 4.53644C8.1671 4.53456 8.37479 4.61744 8.52987 4.76721L13.1813 9.4186Z" fill="black"/>
</svg>
