<svg width="18" height="18" viewBox="0 0 18 18" fill="none" xmlns="http://www.w3.org/2000/svg">
<g clip-path="url(#clip0_146_17121)">
<path d="M1.66674 8.34076C1.79589 8.21163 1.96771 8.13405 2.14998 8.12259C2.33225 8.11113 2.51244 8.16657 2.65674 8.27851L2.72724 8.34076L5.90874 11.523C6.04325 11.658 6.12135 11.8391 6.12716 12.0295C6.13298 12.22 6.06608 12.4055 5.94006 12.5485C5.81403 12.6914 5.63833 12.781 5.44864 12.7991C5.25894 12.8171 5.06949 12.7623 4.91874 12.6458L4.84824 12.5835L1.66674 9.40201C1.59701 9.33235 1.54169 9.24964 1.50395 9.15859C1.4662 9.06754 1.44678 8.96994 1.44678 8.87138C1.44678 8.77282 1.4662 8.67523 1.50395 8.58418C1.54169 8.49313 1.59701 8.41041 1.66674 8.34076ZM17.0837 4.09876C17.2129 4.2279 17.2904 4.39973 17.3019 4.582C17.3134 4.76427 17.2579 4.94445 17.146 5.08876L17.0837 5.15926L9.71199 12.5303C9.5691 12.6733 9.37863 12.759 9.17676 12.7708C8.9749 12.7827 8.7757 12.7201 8.61699 12.5948L8.54499 12.531L5.41674 9.40201C5.2808 9.26735 5.20147 9.08583 5.19498 8.8946C5.18849 8.70336 5.25534 8.51688 5.38184 8.37332C5.50834 8.22976 5.68493 8.13998 5.87546 8.12235C6.06599 8.10473 6.25605 8.16059 6.40674 8.27851L6.47724 8.34076L9.12849 10.9928L16.0232 4.09876C16.1639 3.95815 16.3546 3.87917 16.5535 3.87917C16.7524 3.87917 16.9431 3.95815 17.0837 4.09876ZM13.3337 4.09876C13.4629 4.2279 13.5404 4.39973 13.5519 4.582C13.5634 4.76427 13.5079 4.94445 13.396 5.08876L13.3337 5.15926L9.62124 8.87176C9.48627 9.00627 9.30517 9.08436 9.11471 9.09018C8.92424 9.09599 8.73871 9.0291 8.59578 8.90307C8.45286 8.77705 8.36326 8.60134 8.34519 8.41165C8.32712 8.22196 8.38193 8.0325 8.49849 7.88176L8.56074 7.81051L12.2732 4.09801C12.4139 3.9574 12.6046 3.87842 12.8035 3.87842C13.0024 3.87842 13.1931 3.95815 13.3337 4.09876Z" fill="#A10501"/>
</g>
<defs>
<clipPath id="clip0_146_17121">
<rect width="18" height="18" fill="white"/>
</clipPath>
</defs>
</svg>
