<svg width="22" height="21" viewBox="0 0 22 21" fill="none" xmlns="http://www.w3.org/2000/svg">
<path d="M4 2.625H18.0001C18.4833 2.625 18.8751 3.01669 18.8751 3.49989L18.8753 4.88748C18.8753 5.1196 18.7831 5.34221 18.619 5.50633L13.0063 11.1187C12.8422 11.2828 12.75 11.5054 12.75 11.7374V17.2543C12.75 17.8236 12.215 18.2413 11.6628 18.1032L9.9128 17.6657C9.52325 17.5683 9.25 17.2183 9.25 16.8168V11.7374C9.25 11.5054 9.15781 11.2828 8.99372 11.1187L3.38128 5.50628C3.21718 5.34219 3.125 5.11963 3.125 4.88757V3.5C3.125 3.01675 3.51675 2.625 4 2.625Z" stroke="#A10501" stroke-width="1.75" stroke-linecap="round" stroke-linejoin="round"/>
</svg>
