<svg width="18" height="18" viewBox="0 0 18 18" fill="none" xmlns="http://www.w3.org/2000/svg">
<path fill-rule="evenodd" clip-rule="evenodd" d="M8.99771 3.01656C9.85262 2.22872 10.9659 1.78613 12.1281 1.78613C13.383 1.78613 14.5811 2.30219 15.4582 3.21175C16.3291 4.11412 16.8139 5.33052 16.8139 6.59377C16.8139 7.85706 16.329 9.07354 15.4582 9.97578C14.8792 10.5761 14.301 11.1899 13.7198 11.807C12.5394 13.0604 11.3463 14.3272 10.107 15.5207L10.1041 15.5235C9.46501 16.13 8.45284 16.1079 7.841 15.4738L2.53692 9.97571C0.729882 8.1026 0.729882 5.08496 2.53692 3.21183C4.30523 1.37885 7.15273 1.31376 8.99771 3.01656Z" fill="#FF3770"/>
</svg>
