<svg width="25" height="26" viewBox="0 0 25 26" fill="none" xmlns="http://www.w3.org/2000/svg">
<path d="M6.63013 19.3837V6.47893C6.63013 6.14485 6.90095 5.87402 7.23504 5.87402H10.0579C10.392 5.87402 10.6629 6.14485 10.6629 6.47893V19.3837C10.6629 19.7178 10.392 19.9886 10.0579 19.9886H7.23504C6.90095 19.9886 6.63013 19.7178 6.63013 19.3837Z" fill="black" stroke="black" stroke-width="2.01636"/>
<path d="M14.6954 19.3837V6.47893C14.6954 6.14485 14.9662 5.87402 15.3003 5.87402H18.1233C18.4574 5.87402 18.7282 6.14485 18.7282 6.47893V19.3837C18.7282 19.7178 18.4574 19.9886 18.1233 19.9886H15.3003C14.9662 19.9886 14.6954 19.7178 14.6954 19.3837Z" fill="black" stroke="black" stroke-width="2.01636"/>
</svg>
