<svg width="102" height="102" viewBox="0 0 102 102" fill="none" xmlns="http://www.w3.org/2000/svg">
<path d="M50.9963 0C22.8758 0 0 22.8758 0 50.9963C0 79.1169 22.8758 101.993 50.9963 101.993C79.1169 101.993 101.993 79.1169 101.993 50.9963C101.993 22.8758 79.1169 0 50.9963 0ZM50.9963 98.7506C24.6669 98.7506 3.24206 77.3258 3.24206 50.9963C3.24206 24.6669 24.6669 3.24206 50.9963 3.24206C77.3258 3.24206 98.7506 24.6669 98.7506 50.9963C98.7506 77.3258 77.3258 98.7506 50.9963 98.7506Z" fill="black"/>
<path d="M60.1785 39.5924C63.3752 39.5924 65.9598 36.97 65.9598 33.7355C65.9598 30.501 63.3677 27.8787 60.1785 27.8787C56.9893 27.8787 54.3972 30.501 54.3972 33.7355C54.3972 36.97 56.9893 39.5924 60.1785 39.5924Z" fill="black"/>
<path d="M41.8143 39.5924C45.011 39.5924 47.5956 36.97 47.5956 33.7355C47.5956 30.501 45.0034 27.8787 41.8143 27.8787C38.6251 27.8787 36.033 30.501 36.033 33.7355C36.033 36.97 38.6251 39.5924 41.8143 39.5924Z" fill="black"/>
<path d="M51.8353 58.8863C37.1667 58.8863 25.2413 49.1526 25.2413 37.1895H21.9993C21.9993 50.9436 35.3832 62.1359 51.8428 62.1359C68.3025 62.1359 81.6864 50.9436 81.6864 37.1895H78.4444C78.4444 49.1526 66.5115 58.8863 51.8504 58.8863H51.8353Z" fill="black"/>
</svg>
