<svg width="24" height="24" viewBox="0 0 24 24" fill="none" xmlns="http://www.w3.org/2000/svg">
<path d="M3.03833 4.2939C3.01363 4.10866 3.07824 3.92338 3.23047 3.81499C3.92634 3.31953 6.31334 2 11.9991 2C17.6849 2 20.0719 3.31952 20.7678 3.81499C20.92 3.92338 20.9846 4.10866 20.9599 4.2939L19.2607 17.0378C19.0959 18.2744 18.3635 19.3632 17.2804 19.9821L16.9605 20.1649C13.8862 21.9217 10.112 21.9217 7.03775 20.1649L6.71787 19.9821C5.63474 19.3632 4.90239 18.2744 4.73752 17.0378L3.03833 4.2939Z" stroke="#A10501" stroke-width="2"/>
<path d="M3 5C5.57143 7.66666 18.4286 7.66662 21 5" stroke="#A10501" stroke-width="2"/>
</svg>
