<svg width="24" height="25" viewBox="0 0 24 25" fill="none" xmlns="http://www.w3.org/2000/svg">
<path d="M8.99219 13.5H11.9922H14.9922" stroke="#AAAAAA" stroke-width="2" stroke-linecap="round" stroke-linejoin="round"/>
<path d="M3.03833 4.7939C3.01363 4.60866 3.07824 4.42338 3.23047 4.31499C3.92634 3.81953 6.31334 2.5 11.9991 2.5C17.6849 2.5 20.0719 3.81952 20.7678 4.31499C20.92 4.42338 20.9846 4.60866 20.9599 4.7939L19.2607 17.5378C19.0959 18.7744 18.3635 19.8632 17.2804 20.4821L16.9605 20.6649C13.8862 22.4217 10.112 22.4217 7.03775 20.6649L6.71787 20.4821C5.63474 19.8632 4.90239 18.7744 4.73752 17.5378L3.03833 4.7939Z" stroke="#AAAAAA" stroke-width="2"/>
<path d="M3 5.5C5.57143 8.16666 18.4286 8.16662 21 5.5" stroke="#AAAAAA" stroke-width="2"/>
</svg>
